<?xml version="1.0" standalone="no"?>
<!DOCTYPE svg PUBLIC "-//W3C//DTD SVG 20010904//EN"
 "http://www.w3.org/TR/2001/REC-SVG-20010904/DTD/svg10.dtd">
<svg version="1.0" xmlns="http://www.w3.org/2000/svg"
 width="300.000000pt" height="300.000000pt" viewBox="0 0 300.000000 300.000000"
 preserveAspectRatio="xMidYMid meet">
<metadata>
Created by potrace 1.10, written by Peter Selinger 2001-2011
</metadata>
<g transform="translate(0.000000,300.000000) scale(0.100000,-0.100000)"
fill="#000000" stroke="none">
<path d="M727 2472 c-22 -4 -33 -48 -17 -67 10 -12 38 -15 131 -15 l119 0 0
-435 0 -435 490 0 489 0 21 -22 c25 -28 25 -48 -1 -82 -18 -23 -27 -26 -87
-26 -63 0 -68 2 -84 29 -23 41 -63 64 -111 64 -53 0 -104 -26 -125 -64 l-17
-29 -150 0 -150 0 -17 29 c-33 59 -137 84 -193 47 -62 -41 -83 -129 -45 -191
53 -85 190 -85 236 1 l19 34 152 0 c138 0 152 -2 157 -18 4 -10 19 -31 35 -46
59 -57 171 -42 212 28 l21 36 73 -1 c87 -1 123 16 154 71 43 77 13 172 -64
210 -40 20 -60 20 -486 20 l-444 -1 -2 432 -2 432 -148 1 c-82 0 -157 0 -166
-2z m271 -44 c13 -13 16 -48 5 -48 -13 0 -53 47 -46 54 10 10 28 7 41 -6z m52
-860 c0 -5 -10 -8 -22 -6 -17 2 -24 11 -26 33 l-4 30 26 -24 c14 -14 26 -29
26 -33z m189 -216 c5 -2 -91 -92 -98 -92 -2 0 6 12 20 26 30 32 32 92 4 126
-11 13 1 5 25 -17 25 -22 47 -41 49 -43z m355 41 c-18 -35 -18 -51 1 -86 l15
-29 -35 31 c-20 17 -41 31 -47 31 -8 0 69 77 79 80 1 0 -5 -12 -13 -27z m-456
-5 c21 -21 14 -66 -12 -83 -50 -33 -110 31 -71 75 20 22 65 26 83 8z m582 -21
c14 -27 14 -29 -13 -53 -35 -30 -42 -30 -72 0 -25 25 -25 44 -2 74 18 23 70
10 87 -21z m72 -2 c16 -14 26 -25 21 -25 -5 0 -24 -15 -43 -32 -23 -23 -31
-27 -25 -13 5 11 9 37 10 58 0 20 2 37 4 37 2 0 16 -11 33 -25z"/>
<path d="M1507 2429 c-59 -9 -129 -43 -174 -82 -34 -30 -36 -31 -139 -28
l-104 3 0 -321 0 -321 433 0 434 0 32 123 c49 184 132 488 138 504 5 12 -18
14 -145 12 l-150 -2 -43 36 c-72 62 -184 92 -282 76z m199 -88 c140 -76 193
-239 123 -379 -32 -65 -66 -99 -133 -135 -60 -32 -203 -32 -263 0 -93 50 -155
145 -161 250 -4 51 0 71 22 120 57 124 156 186 287 179 51 -2 79 -10 125 -35z
m-426 -74 c0 -8 -8 -29 -17 -48 -28 -54 -25 -210 5 -271 31 -63 96 -126 162
-157 46 -22 69 -26 140 -26 73 1 93 5 139 29 101 52 160 130 180 239 11 63 2
138 -24 190 -28 55 -25 57 95 57 93 0 110 -2 110 -16 0 -15 -49 -209 -97 -379
-14 -49 -27 -102 -30 -117 -3 -15 -11 -32 -18 -38 -8 -7 -142 -9 -401 -8
l-389 3 -3 265 c-1 146 0 270 3 277 7 19 145 18 145 0z"/>
<path d="M1530 2321 c0 -25 -6 -31 -35 -41 -52 -17 -88 -65 -81 -108 7 -45 30
-69 78 -84 38 -11 38 -11 38 -65 0 -60 -6 -63 -67 -38 -48 20 -53 19 -53 -10
0 -28 21 -42 79 -51 40 -6 41 -8 41 -45 0 -32 3 -39 20 -39 17 0 20 7 20 38 0
36 2 40 39 51 82 24 108 108 51 161 -17 16 -44 31 -60 35 -29 6 -30 9 -30 61
0 30 2 54 5 54 3 0 22 -7 42 -15 41 -17 38 -18 47 17 6 25 3 28 -31 37 -21 6
-44 11 -50 11 -8 0 -13 13 -13 30 0 23 -4 30 -20 30 -15 0 -20 -7 -20 -29z
m68 -48 c33 -6 48 -13 50 -27 3 -15 0 -17 -20 -10 -12 4 -34 8 -48 8 -24 1
-25 -2 -25 -58 l0 -59 40 -14 c55 -19 79 -45 79 -88 0 -43 -24 -69 -79 -88
-35 -12 -41 -18 -46 -53 l-6 -39 -2 43 c-1 33 -5 42 -18 42 -39 0 -93 21 -93
37 0 10 5 13 18 8 9 -4 34 -9 55 -12 l37 -6 0 66 0 66 -36 10 c-52 14 -74 38
-74 78 0 50 14 69 65 88 39 16 45 22 47 49 l1 31 4 -32 c4 -28 8 -32 51 -40z"/>
<path d="M1503 2240 c-48 -19 -50 -75 -3 -100 35 -18 40 -12 40 50 0 63 -1 64
-37 50z m27 -55 c0 -49 -1 -50 -31 -35 -33 18 -19 80 18 80 9 0 13 -15 13 -45z"/>
<path d="M1554 2076 c-3 -7 -4 -35 -2 -62 3 -44 5 -49 27 -49 31 0 66 45 56
74 -3 12 -19 28 -35 36 -36 18 -39 19 -46 1z m54 -18 c17 -17 15 -54 -4 -72
-26 -26 -34 -18 -34 34 0 51 12 64 38 38z"/>
<path d="M962 1174 c-20 -14 -22 -23 -22 -123 0 -120 5 -131 61 -131 43 0 54
11 62 63 5 34 4 37 -17 37 -19 0 -22 -4 -19 -23 3 -14 -2 -29 -12 -37 -29 -24
-41 8 -39 97 1 43 3 81 3 86 1 4 10 7 20 7 20 0 31 -18 31 -52 0 -13 6 -18 18
-16 24 5 18 67 -10 91 -25 21 -47 22 -76 1z"/>
<path d="M1112 1174 c-20 -14 -22 -23 -22 -123 0 -123 6 -134 67 -129 50 4 63
31 63 136 0 75 -2 85 -25 107 -28 29 -51 31 -83 9z m66 -115 c2 -67 -1 -89
-12 -98 -28 -23 -36 -2 -36 95 0 93 1 95 23 92 21 -3 22 -8 25 -89z"/>
<path d="M2000 1170 c-17 -17 -20 -33 -20 -116 0 -117 7 -134 60 -134 45 0 70
26 70 72 0 21 -5 28 -19 28 -15 0 -21 -8 -23 -32 -2 -25 -8 -33 -23 -33 -19 0
-20 7 -20 95 0 88 1 95 20 95 15 0 21 -8 23 -33 3 -25 8 -32 20 -30 28 5 27
54 -2 83 -30 30 -59 32 -86 5z"/>
<path d="M730 1051 l0 -129 60 -4 c52 -3 60 -1 60 15 0 13 -9 17 -40 17 -40 0
-40 0 -40 40 0 40 0 40 39 40 30 0 40 4 44 20 5 18 0 20 -39 20 -44 0 -44 0
-44 35 0 35 0 35 44 35 36 0 44 3 42 18 -2 14 -15 18 -64 20 l-62 3 0 -130z"/>
<path d="M1240 1050 c0 -123 1 -130 20 -130 18 0 20 7 21 68 0 73 12 63 24
-22 6 -39 11 -46 30 -46 21 0 25 8 36 58 18 85 33 90 26 10 -6 -67 -6 -68 18
-68 l25 0 -2 131 -1 130 -26 -3 c-23 -3 -27 -11 -45 -90 -12 -49 -23 -88 -26
-88 -3 0 -16 41 -29 90 -21 82 -26 90 -47 90 l-24 0 0 -130z"/>
<path d="M1465 1050 c0 -129 0 -130 23 -130 23 0 23 2 17 65 -9 79 9 91 19 12
8 -63 18 -80 42 -75 13 2 22 21 33 68 l16 65 3 -67 c3 -60 5 -68 22 -68 19 0
20 8 20 130 l0 130 -24 0 c-22 0 -26 -8 -46 -90 -12 -50 -25 -88 -28 -85 -4 3
-16 43 -27 88 -19 73 -24 82 -46 85 l-24 3 0 -131z"/>
<path d="M1680 1050 l0 -130 60 0 c53 0 60 2 60 20 0 17 -7 20 -40 20 -40 0
-40 0 -40 40 0 40 0 40 40 40 29 0 40 4 40 15 0 11 -11 15 -41 15 l-40 0 3 38
c3 36 4 37 41 34 32 -3 37 -1 37 17 0 19 -6 21 -60 21 l-60 0 0 -130z"/>
<path d="M1820 1050 c0 -123 1 -130 20 -130 17 0 20 7 20 50 0 50 4 55 34 44
11 -4 16 -19 16 -50 0 -39 3 -44 23 -44 20 0 22 4 18 48 -2 26 -8 50 -15 54
-8 5 -7 11 2 20 6 6 12 33 12 58 0 61 -20 80 -83 80 l-47 0 0 -130z m85 50 c0
-39 -3 -45 -22 -48 -21 -3 -23 0 -23 48 0 48 2 51 23 48 19 -3 22 -9 22 -48z"/>
<path d="M2125 1050 l0 -130 63 0 c55 0 62 2 62 20 0 17 -7 20 -42 20 l-43 0
1 37 c1 37 2 38 40 39 28 0 40 5 42 17 3 14 -4 17 -37 17 -41 0 -41 0 -41 38
l0 38 40 -4 c35 -4 40 -2 40 17 0 19 -6 21 -62 21 l-63 0 0 -130z"/>
<path d="M880 936 c0 -31 34 -29 38 2 3 17 -2 22 -17 22 -16 0 -21 -6 -21 -24z"/>
</g>
</svg>
